<?xml version="1.0" encoding="iso-8859-1"?>
<!-- Generator: Adobe Illustrator 19.0.0, SVG Export Plug-In . SVG Version: 6.00 Build 0)  -->
<svg version="1.1" id="Capa_1" xmlns="http://www.w3.org/2000/svg" xmlns:xlink="http://www.w3.org/1999/xlink" x="0px" y="0px"
	 viewBox="0 0 512 512" style="enable-background:new 0 0 512 512;" xml:space="preserve">
<path style="fill:#E0230D;" d="M258.7,7.52C394.7,8.96,504.5,119.66,504.5,256S394.7,503.04,258.7,504.48L434.5,256L258.7,7.52z"/>
<path style="fill:#FF5440;" d="M258.7,7.52C372.6,9.24,464.5,119.83,464.5,256s-91.9,246.76-205.8,248.48
	c-0.9,0.01-1.8,0.02-2.7,0.02C118.76,504.5,7.5,393.24,7.5,256S118.76,7.5,256,7.5C256.9,7.5,257.8,7.51,258.7,7.52z M380.5,256
	c0-68.76-55.74-124.5-124.5-124.5S131.5,187.24,131.5,256S187.24,380.5,256,380.5S380.5,324.76,380.5,256z"/>
<path d="M437.02,74.98C388.668,26.629,324.38,0,256,0S123.332,26.629,74.98,74.98S0,187.62,0,256s26.629,132.668,74.98,181.02
	S187.62,512,256,512s132.668-26.629,181.02-74.98S512,324.38,512,256S485.371,123.332,437.02,74.98z M256,497
	C123.112,497,15,388.888,15,256S123.112,15,256,15s241,108.112,241,241S388.888,497,256,497z"/>
<path d="M256,124c-72.785,0-132,59.215-132,132c0,29.84,9.716,57.994,28.097,81.42c2.558,3.259,7.271,3.826,10.53,1.271
	c3.259-2.557,3.827-7.271,1.271-10.53C147.609,307.401,139,282.449,139,256c0-64.514,52.486-117,117-117s117,52.486,117,117
	s-52.486,117-117,117c-26.449,0-51.401-8.609-72.16-24.897c-3.259-2.556-7.974-1.989-10.53,1.271
	c-2.557,3.259-1.988,7.974,1.271,10.53C198.006,378.284,226.16,388,256,388c72.785,0,132-59.215,132-132S328.785,124,256,124z"/>
<g>
</g>
<g>
</g>
<g>
</g>
<g>
</g>
<g>
</g>
<g>
</g>
<g>
</g>
<g>
</g>
<g>
</g>
<g>
</g>
<g>
</g>
<g>
</g>
<g>
</g>
<g>
</g>
<g>
</g>
</svg>
